<svg id="Icons" height="512" viewBox="0 0 74 74" width="512" xmlns="http://www.w3.org/2000/svg"><path d="m62.3 48.13a1.027 1.027 0 0 1 -.219-.024 1 1 0 0 1 -.758-1.194l.64-2.86a1 1 0 0 1 1.952.436l-.64 2.86a1 1 0 0 1 -.975.782z"/><path d="m58.71 64.15a.994.994 0 0 1 -.448-.106l-25.362-12.71a1 1 0 0 1 -.3-1.56l29.468-33-36.35 29.364a1 1 0 0 1 -.955.167l-22.09-7.63a1 1 0 0 1 -.07-1.863l67.982-29.442a.993.993 0 0 1 .4-.09h.015a.456.456 0 0 1 .091 0h.008a1 1 0 0 1 .6.278q.037.037.072.078a.987.987 0 0 1 .222.514 1.038 1.038 0 0 1 0 .216 1 1 0 0 1 -.023.142l-4.334 19.351a1 1 0 1 1 -1.951-.438l3.5-15.6-34.218 38.31 23.046 11.551 1.771-7.92a1 1 0 0 1 1.952.436l-2.05 9.17a1 1 0 0 1 -.976.782zm-52.951-26.525 19.134 6.609 39.766-32.118z"/><path d="m64.471 38.41a1 1 0 0 1 -.976-1.221l.66-2.91a1 1 0 0 1 1.95.442l-.66 2.91a1 1 0 0 1 -.974.779z"/><path d="m27 66.716a.964.964 0 0 1 -.15-.011 1 1 0 0 1 -.85-.895l-1.9-20.362a1 1 0 1 1 1.991-.186l1.529 16.358 4.809-11.564a1 1 0 1 1 1.846.767l-6.352 15.277a1 1 0 0 1 -.923.616z"/><path d="m27 66.72a1 1 0 0 1 -.634-1.773l13.98-11.461a1 1 0 0 1 1.268 1.547l-13.98 11.461a1 1 0 0 1 -.634.226z"/></svg>