<svg id="Layer_1" enable-background="new 0 0 512 512" height="512" viewBox="0 0 512 512" width="512" xmlns="http://www.w3.org/2000/svg"><g><path d="m467 143h-36.868c5.277 19.494 8.11 39.982 8.11 61.122 0 129.095-105.026 234.121-234.122 234.121-11.202 0-22.38-.83-33.436-2.427 6.917 15.975 22.83 27.184 41.316 27.184h212.583l63.61 46.142c2.61 1.893 5.701 2.858 8.809 2.858 2.327 0 4.663-.541 6.813-1.638 5.023-2.561 8.185-7.723 8.185-13.362v-309c0-24.813-20.187-45-45-45z"/><path d="m295 178.653-34 25.089v10.517l34 25.089z"/><path d="m408.243 204.122c0-112.553-91.569-204.122-204.121-204.122s-204.122 91.569-204.122 204.122c0 39.168 11.028 76.924 31.969 109.698l-31.038 83.98c-2.03 5.493-.678 11.666 3.463 15.807 2.864 2.864 6.699 4.394 10.609 4.394 1.744 0 3.503-.305 5.198-.931l88.229-32.61c29.327 15.58 62.254 23.783 95.691 23.783 112.553 0 204.122-91.568 204.122-204.121zm-329.243 37.879v-66c0-23.71 19.29-43 43-43h96c20.673 0 37.981 14.666 42.077 34.139l41.017-30.266c4.554-3.361 10.613-3.872 15.667-1.32 5.053 2.551 8.24 7.729 8.24 13.39v120.116c0 5.661-3.187 10.839-8.24 13.39-2.136 1.079-4.453 1.61-6.758 1.61-3.149 0-6.279-.99-8.908-2.93l-41.017-30.266c-4.096 19.473-21.404 34.139-42.077 34.139h-96c-23.711-.002-43.001-19.292-43.001-43.002z"/><path d="m231 242.001v-66c0-7.168-5.832-13-13-13h-96c-7.168 0-13 5.832-13 13v66c0 7.168 5.832 13 13 13h96c7.169 0 13-5.832 13-13z"/></g></svg>